control3min_grf.mot
version=1
nRows=25
nColumns 19
inDegrees=yes
endheader
time	1_ground_force_vx	1_ground_force_vy	1_ground_force_vz	1_ground_force_px	1_ground_force_py	1_ground_force_pz	1_ground_torque_x	1_ground_torque_y	1_ground_torque_z	2_ground_force_vx	2_ground_force_vy	2_ground_force_vz	2_ground_force_px	2_ground_force_py	2_ground_force_pz	2_ground_torque_x	2_ground_torque_y	2_ground_torque_z
            2.502500	          -13.798116	          514.809190	          -33.527012	           -0.144168	            0.006220	           -0.400918	           -0.015897	            0.593104	           -0.038626	           -2.057421	          640.485671	           49.166984	           -0.139350	            0.006005	           -0.704486	            0.007876	           -2.451768	           -0.188210
            2.503000	          -14.071438	          509.039517	          -33.275929	           -0.144315	            0.006221	           -0.400964	           -0.018138	            0.656163	           -0.042893	           -1.848130	          634.409734	           49.051365	           -0.139297	            0.006005	           -0.704404	            0.006956	           -2.387763	           -0.184617
            2.503500	          -14.114909	          502.908312	          -32.797684	           -0.144067	            0.006221	           -0.400954	           -0.023663	            0.843090	           -0.054983	           -1.825033	          627.965966	           48.652943	           -0.139126	            0.006005	           -0.704393	            0.006880	           -2.367434	           -0.183422
            2.504000	          -14.525922	          496.778413	          -32.639518	           -0.144292	            0.006220	           -0.400769	           -0.023409	            0.800584	           -0.052600	           -1.477974	          622.628104	           48.258324	           -0.139439	            0.006005	           -0.704644	            0.005770	           -2.430687	           -0.188396
            2.504500	          -14.477495	          490.106202	          -32.117960	           -0.144043	            0.006220	           -0.400937	           -0.021967	            0.743653	           -0.048734	           -1.080099	          616.185856	           47.812815	           -0.139141	            0.006005	           -0.704455	            0.004258	           -2.429268	           -0.188499
            2.505000	          -14.704681	          483.975552	          -31.776825	           -0.144042	            0.006221	           -0.401112	           -0.017722	            0.583290	           -0.038298	           -1.242366	          609.188471	           47.506357	           -0.138914	            0.006006	           -0.704326	            0.004822	           -2.364358	           -0.184380
            2.505500	          -14.839596	          478.384568	          -31.158462	           -0.144219	            0.006220	           -0.400862	           -0.011804	            0.380527	           -0.024785	           -1.133462	          604.954059	           47.303493	           -0.139165	            0.006006	           -0.704756	            0.004400	           -2.348188	           -0.183613
            2.506000	          -15.112803	          472.614637	          -30.861519	           -0.143915	            0.006220	           -0.400822	           -0.011207	            0.350459	           -0.022885	           -0.920389	          597.774952	           46.714651	           -0.139024	            0.006006	           -0.704528	            0.003622	           -2.352592	           -0.183849
            2.506500	          -15.385475	          467.023958	          -30.334528	           -0.144253	            0.006220	           -0.400757	           -0.017116	            0.519550	           -0.033746	           -0.524384	          591.884061	           46.552681	           -0.138922	            0.006006	           -0.704482	            0.002085	           -2.352950	           -0.185063
            2.507000	          -15.520729	          460.172066	          -29.950856	           -0.143822	            0.006220	           -0.400854	           -0.021005	            0.622773	           -0.040534	           -0.410807	          586.360559	           46.392145	           -0.138948	            0.006006	           -0.704515	            0.001607	           -2.294255	           -0.181519
            2.507500	          -15.792733	          454.039638	          -29.196903	           -0.143794	            0.006220	           -0.400765	           -0.022716	            0.653097	           -0.041997	           -0.529548	          580.284107	           46.088953	           -0.138910	            0.006007	           -0.704585	            0.002108	           -2.310016	           -0.183473
            2.508000	          -15.882584	          447.729173	          -28.948594	           -0.143567	            0.006220	           -0.400768	           -0.018400	            0.518698	           -0.033537	           -0.270228	          573.288869	           45.641533	           -0.138790	            0.006007	           -0.704453	            0.001084	           -2.299103	           -0.183040
            2.508500	          -16.247366	          441.959027	          -28.605571	           -0.143577	            0.006220	           -0.400870	           -0.009431	            0.256540	           -0.016604	           -0.394971	          568.869912	           45.297326	           -0.139120	            0.006006	           -0.704735	            0.001621	           -2.334864	           -0.185918
            2.509000	          -16.198745	          436.728156	          -27.894406	           -0.143670	            0.006219	           -0.400601	           -0.006985	            0.188308	           -0.012028	           -0.365789	          560.767858	           45.127631	           -0.138618	            0.006007	           -0.704380	            0.001487	           -2.279690	           -0.183457
            2.509500	          -16.381028	          429.517886	          -28.016581	           -0.143366	            0.006221	           -0.401127	           -0.006589	            0.172766	           -0.011269	           -0.113615	          555.796889	           45.062863	           -0.138833	            0.006007	           -0.704509	            0.000461	           -2.257207	           -0.183010
            2.510000	          -16.516565	          424.828986	          -27.577778	           -0.143685	            0.006219	           -0.400673	           -0.013589	            0.349516	           -0.022689	           -0.046183	          550.088681	           44.995546	           -0.138760	            0.006008	           -0.704705	            0.000185	           -2.197966	           -0.179787
            2.510500	          -16.744204	          418.699123	          -27.420066	           -0.143285	            0.006220	           -0.400816	           -0.015698	            0.392549	           -0.025708	            0.209814	          544.014085	           44.551411	           -0.138747	            0.006008	           -0.704785	           -0.000867	           -2.248051	           -0.184102
            2.511000	          -16.742174	          412.568517	          -27.079500	           -0.143265	            0.006221	           -0.401032	           -0.016727	            0.412185	           -0.027054	            0.231582	          537.938598	           44.154303	           -0.138777	            0.006007	           -0.704586	           -0.000967	           -2.247012	           -0.184436
            2.511500	          -16.969265	          407.158536	          -26.643560	           -0.143471	            0.006220	           -0.400821	           -0.007112	            0.170654	           -0.011167	            0.766082	          532.601077	           43.853460	           -0.138824	            0.006008	           -0.704813	           -0.003286	           -2.284523	           -0.188104
            2.512000	          -17.196517	          402.649915	          -26.203756	           -0.143734	            0.006218	           -0.400283	            0.000750	           -0.017570	            0.001143	            0.557691	          525.418941	           43.687150	           -0.138311	            0.006008	           -0.704479	           -0.002325	           -2.190156	           -0.182105
            2.512500	          -17.102799	          395.257830	          -25.960540	           -0.143107	            0.006220	           -0.400727	            0.003795	           -0.087712	            0.005761	            0.764282	          520.080024	           43.480304	           -0.138497	            0.006008	           -0.704635	           -0.003291	           -2.239313	           -0.187213
            2.513000	          -17.101096	          389.668445	          -25.709366	           -0.143390	            0.006220	           -0.400815	            0.000455	           -0.010376	            0.000685	            0.456148	          514.555379	           43.179163	           -0.138456	            0.006009	           -0.704743	           -0.001902	           -2.145842	           -0.180069
            2.513500	          -17.466364	          384.079321	          -25.548994	           -0.143318	            0.006219	           -0.400583	           -0.005935	            0.130504	           -0.008681	            0.804015	          509.032327	           43.112383	           -0.138470	            0.006010	           -0.705117	           -0.003403	           -2.154329	           -0.182460
            2.514000	          -17.279710	          377.946588	          -24.704468	           -0.143289	            0.006219	           -0.400533	           -0.015852	            0.346719	           -0.022663	            0.828421	          502.220322	           42.665719	           -0.138357	            0.006009	           -0.704608	           -0.003582	           -2.171757	           -0.184500
            2.514500	          -17.277650	          372.897183	          -24.267552	           -0.143297	            0.006219	           -0.400522	           -0.011572	            0.249763	           -0.016254	            0.709201	          496.326566	           42.785537	           -0.138231	            0.006009	           -0.704512	           -0.003051	           -2.135431	           -0.184084
